<mxfile host="Electron" modified="2024-07-17T02:38:39.336Z" agent="Mozilla/5.0 (Macintosh; Intel Mac OS X 10_15_7) AppleWebKit/537.36 (KHTML, like Gecko) draw.io/23.1.5 Chrome/120.0.6099.109 Electron/28.1.0 Safari/537.36" etag="f0fwPBo6eQhWHg_cWqhQ" version="23.1.5" type="device">
  <diagram name="第 1 页" id="sM8hik9mvSzCYbkwxemm">
    <mxGraphModel dx="985" dy="1743" grid="1" gridSize="10" guides="1" tooltips="1" connect="1" arrows="1" fold="1" page="1" pageScale="1" pageWidth="827" pageHeight="1169" math="0" shadow="0">
      <root>
        <mxCell id="0" />
        <mxCell id="1" parent="0" />
        <mxCell id="Qo-duo0uuY3CPeE2HSr5-1" value="get auth token from header" style="rounded=1;whiteSpace=wrap;html=1;" vertex="1" parent="1">
          <mxGeometry x="365" y="-1050" width="110" height="40" as="geometry" />
        </mxCell>
        <mxCell id="Qo-duo0uuY3CPeE2HSr5-2" value="parse token (token, userclaim, jwtkey)" style="rounded=1;whiteSpace=wrap;html=1;" vertex="1" parent="1">
          <mxGeometry x="365" y="-990" width="110" height="40" as="geometry" />
        </mxCell>
        <mxCell id="Qo-duo0uuY3CPeE2HSr5-3" value="set header (userId, userIdentity, userName)" style="rounded=1;whiteSpace=wrap;html=1;" vertex="1" parent="1">
          <mxGeometry x="355" y="-930" width="130" height="40" as="geometry" />
        </mxCell>
        <mxCell id="Qo-duo0uuY3CPeE2HSr5-16" style="edgeStyle=orthogonalEdgeStyle;rounded=0;orthogonalLoop=1;jettySize=auto;html=1;exitX=0.5;exitY=1;exitDx=0;exitDy=0;entryX=0.5;entryY=0;entryDx=0;entryDy=0;" edge="1" parent="1" source="Qo-duo0uuY3CPeE2HSr5-4" target="Qo-duo0uuY3CPeE2HSr5-10">
          <mxGeometry relative="1" as="geometry" />
        </mxCell>
        <mxCell id="Qo-duo0uuY3CPeE2HSr5-4" value="" style="swimlane;startSize=0;dashed=1;dashPattern=12 12;" vertex="1" parent="1">
          <mxGeometry x="320" y="-1120" width="200" height="250" as="geometry" />
        </mxCell>
        <mxCell id="Qo-duo0uuY3CPeE2HSr5-6" value="&lt;h1 style=&quot;font-size: 19px;&quot;&gt;&lt;font style=&quot;font-size: 19px;&quot;&gt;Authorization Middleware&lt;/font&gt;&lt;/h1&gt;&lt;p style=&quot;font-size: 19px;&quot;&gt;&lt;br&gt;&lt;/p&gt;" style="text;html=1;spacing=5;spacingTop=-20;whiteSpace=wrap;overflow=hidden;rounded=0;align=center;" vertex="1" parent="Qo-duo0uuY3CPeE2HSr5-4">
          <mxGeometry x="30" y="10" width="130" height="50" as="geometry" />
        </mxCell>
        <mxCell id="Qo-duo0uuY3CPeE2HSr5-7" value="get file and fileHeader from req" style="rounded=1;whiteSpace=wrap;html=1;" vertex="1" parent="1">
          <mxGeometry x="365" y="-750" width="110" height="40" as="geometry" />
        </mxCell>
        <mxCell id="Qo-duo0uuY3CPeE2HSr5-8" value="use md5(file content) as hash" style="rounded=1;whiteSpace=wrap;html=1;" vertex="1" parent="1">
          <mxGeometry x="365" y="-690" width="110" height="40" as="geometry" />
        </mxCell>
        <mxCell id="Qo-duo0uuY3CPeE2HSr5-9" value="upload to Tencent COS" style="rounded=1;whiteSpace=wrap;html=1;" vertex="1" parent="1">
          <mxGeometry x="365" y="-630" width="110" height="40" as="geometry" />
        </mxCell>
        <mxCell id="Qo-duo0uuY3CPeE2HSr5-31" style="edgeStyle=orthogonalEdgeStyle;rounded=0;orthogonalLoop=1;jettySize=auto;html=1;exitX=0.5;exitY=1;exitDx=0;exitDy=0;entryX=0.5;entryY=0;entryDx=0;entryDy=0;" edge="1" parent="1" source="Qo-duo0uuY3CPeE2HSr5-10" target="Qo-duo0uuY3CPeE2HSr5-21">
          <mxGeometry relative="1" as="geometry" />
        </mxCell>
        <mxCell id="Qo-duo0uuY3CPeE2HSr5-10" value="" style="swimlane;startSize=0;dashed=1;dashPattern=12 12;" vertex="1" parent="1">
          <mxGeometry x="320" y="-820" width="200" height="310" as="geometry" />
        </mxCell>
        <mxCell id="Qo-duo0uuY3CPeE2HSr5-11" value="&lt;h1 style=&quot;font-size: 19px;&quot;&gt;File Upload (Repo Pool)&lt;/h1&gt;" style="text;html=1;spacing=5;spacingTop=-20;whiteSpace=wrap;overflow=hidden;rounded=0;align=center;" vertex="1" parent="Qo-duo0uuY3CPeE2HSr5-10">
          <mxGeometry x="30" y="10" width="130" height="50" as="geometry" />
        </mxCell>
        <mxCell id="Qo-duo0uuY3CPeE2HSr5-17" value="insert into DB" style="rounded=1;whiteSpace=wrap;html=1;" vertex="1" parent="Qo-duo0uuY3CPeE2HSr5-10">
          <mxGeometry x="45" y="250" width="110" height="40" as="geometry" />
        </mxCell>
        <mxCell id="Qo-duo0uuY3CPeE2HSr5-27" value="" style="endArrow=none;dashed=1;html=1;rounded=0;" edge="1" parent="Qo-duo0uuY3CPeE2HSr5-10">
          <mxGeometry width="50" height="50" relative="1" as="geometry">
            <mxPoint x="15" y="240" as="sourcePoint" />
            <mxPoint x="185" y="240" as="targetPoint" />
          </mxGeometry>
        </mxCell>
        <mxCell id="Qo-duo0uuY3CPeE2HSr5-13" value="&lt;b&gt;request&lt;/b&gt; cos url; secretID, secretKey; name, file&lt;br&gt;&lt;b&gt;return&lt;/b&gt; file path" style="text;html=1;align=left;verticalAlign=middle;whiteSpace=wrap;rounded=0;" vertex="1" parent="1">
          <mxGeometry x="535" y="-625" width="140" height="30" as="geometry" />
        </mxCell>
        <mxCell id="Qo-duo0uuY3CPeE2HSr5-14" value="req.formFile(&quot;file&quot;)" style="text;html=1;align=left;verticalAlign=middle;whiteSpace=wrap;rounded=0;" vertex="1" parent="1">
          <mxGeometry x="535" y="-745" width="100" height="30" as="geometry" />
        </mxCell>
        <mxCell id="Qo-duo0uuY3CPeE2HSr5-18" value="get user identity from header" style="rounded=1;whiteSpace=wrap;html=1;" vertex="1" parent="1">
          <mxGeometry x="365" y="-390" width="110" height="40" as="geometry" />
        </mxCell>
        <mxCell id="Qo-duo0uuY3CPeE2HSr5-19" value="insert into DB" style="rounded=1;whiteSpace=wrap;html=1;" vertex="1" parent="1">
          <mxGeometry x="365" y="-330" width="110" height="40" as="geometry" />
        </mxCell>
        <mxCell id="Qo-duo0uuY3CPeE2HSr5-21" value="" style="swimlane;startSize=0;dashed=1;dashPattern=12 12;" vertex="1" parent="1">
          <mxGeometry x="320" y="-460" width="200" height="190" as="geometry" />
        </mxCell>
        <mxCell id="Qo-duo0uuY3CPeE2HSr5-22" value="&lt;h1 style=&quot;font-size: 19px;&quot;&gt;File Conn with User&lt;/h1&gt;" style="text;html=1;spacing=5;spacingTop=-20;whiteSpace=wrap;overflow=hidden;rounded=0;align=center;" vertex="1" parent="Qo-duo0uuY3CPeE2HSr5-21">
          <mxGeometry x="30" y="10" width="130" height="50" as="geometry" />
        </mxCell>
        <mxCell id="Qo-duo0uuY3CPeE2HSr5-28" value="" style="endArrow=none;dashed=1;html=1;rounded=0;" edge="1" parent="Qo-duo0uuY3CPeE2HSr5-21">
          <mxGeometry width="50" height="50" relative="1" as="geometry">
            <mxPoint x="20" y="120" as="sourcePoint" />
            <mxPoint x="190" y="120" as="targetPoint" />
          </mxGeometry>
        </mxCell>
      </root>
    </mxGraphModel>
  </diagram>
</mxfile>
